/* XPM */
static char * xsysguard_xpm[] = {
"32 32 4 1",
" 	c None",
".	c #0D55DB",
"+	c #0A43AE",
"@	c #538CF5",
"                                ",
"                                ",
"                                ",
"     ..                         ",
"     ..                         ",
"     ..                         ",
"    ...                         ",
"    ...                         ",
"    ...                         ",
"    ...                         ",
"    ...                         ",
"    ...                         ",
"    ...                         ",
"   +...+         +              ",
"  .+...+         +              ",
" ..+...+        +++             ",
" .@+.@@+.       +++             ",
" .@+.@@+.       +++             ",
"..@..@@..       ...             ",
".@@.@@@..      .....        .   ",
".@@.@@@..      .....        .   ",
".@@@@@@@@     +.@@@.        .   ",
".@@@@@@@@     +.@@@.        .   ",
".@@@@@@@@ .   +@@@@@..      @   ",
"@@@@@@@@@.. . .@@@@@..      @.  ",
"@@@@@@@@@.. . .@@@@@..      @@  ",
"@@@@@@@@@.@ @ .@@@@@..     .@@  ",
"@@@@@@@@@@@.@ @@@@@@@@     .@@  ",
"@@@@@@@@@@@.@ @@@@@@@@     @@@. ",
"@@@@@@@@@@@@@ @@@@@@@@.  + @@@@ ",
"@@@@@@@@@@@@@@@@@@@@@@@+.+@@@@@.",
"@@@@@@@@@@@@@@@@@@@@@@@+.+@@@@@."};
